<?xml version="1.0" encoding="utf-8"?>
<!-- Generator: Adobe Illustrator 17.0.0, SVG Export Plug-In . SVG Version: 6.00 Build 0)  -->
<!DOCTYPE svg PUBLIC "-//W3C//DTD SVG 1.1//EN" "http://www.w3.org/Graphics/SVG/1.1/DTD/svg11.dtd">
<svg version="1.1" id="Calque_1" xmlns="http://www.w3.org/2000/svg" xmlns:xlink="http://www.w3.org/1999/xlink" x="0px" y="0px"
	 width="320px" height="660px" viewBox="0 0 320 660" enable-background="new 0 0 320 660" xml:space="preserve">
<g>
	<path fill="none" stroke="#A4A4A4" stroke-miterlimit="10" d="M111.487,62.29c2.821,0,5.109-2.287,5.109-5.109
		c0-2.821-2.287-5.109-5.109-5.109c-2.821,0-5.109,2.287-5.109,5.109C106.378,60.003,108.665,62.29,111.487,62.29L111.487,62.29z
		 M111.487,62.29"/>
	<g>
		<defs>
			<rect id="SVGID_1_" x="2.5" y="9.5" width="311.634" height="642"/>
		</defs>
		<defs>
			<path id="SVGID_2_" d="M137.016,53.776c-1.873,0-3.392,1.512-3.392,3.406l0,0c0,1.881,1.529,3.406,3.392,3.406h44.304
				c1.873,0,3.392-1.512,3.392-3.406l0,0c0-1.881-1.529-3.406-3.392-3.406H137.016L137.016,53.776z M137.016,53.776"/>
		</defs>
		<clipPath id="SVGID_3_">
			<use xlink:href="#SVGID_1_"  overflow="visible"/>
		</clipPath>
		<clipPath id="SVGID_4_" clip-path="url(#SVGID_3_)">
			<use xlink:href="#SVGID_2_"  overflow="visible"/>
		</clipPath>
		<path clip-path="url(#SVGID_4_)" fill="none" stroke="#A4A4A4" stroke-width="2" stroke-miterlimit="10" d="M137.016,53.776
			c-1.873,0-3.392,1.512-3.392,3.406l0,0c0,1.881,1.529,3.406,3.392,3.406h44.304c1.873,0,3.392-1.512,3.392-3.406l0,0
			c0-1.881-1.529-3.406-3.392-3.406H137.016L137.016,53.776z M137.016,53.776"/>
	</g>
	<g>
		<defs>
			<rect id="SVGID_5_" x="2.5" y="9.5" width="311.634" height="642"/>
		</defs>
		<clipPath id="SVGID_6_">
			<use xlink:href="#SVGID_5_"  overflow="visible"/>
		</clipPath>
		<path clip-path="url(#SVGID_6_)" fill="none" stroke="#A4A4A4" stroke-miterlimit="10" d="M310.728,196.485v400.536
			c0,24.449-19.824,44.262-44.279,44.262H51.888c-24.449,0-44.279-19.817-44.279-44.262V62.276
			c0-24.449,19.824-44.262,44.279-44.262h214.561c24.449,0,44.279,19.817,44.279,44.262v88.904c-0.414,0.309-0.681,0.8-0.681,1.352
			v42.597C310.047,195.684,310.313,196.177,310.728,196.485L310.728,196.485z M310.728,196.485 M310.728,196.485v400.536
			c0,24.449-19.824,44.262-44.279,44.262H51.888c-24.449,0-44.279-19.817-44.279-44.262V62.276
			c0-24.449,19.824-44.262,44.279-44.262h214.561c24.449,0,44.279,19.817,44.279,44.262v88.904c-0.414,0.309-0.681,0.8-0.681,1.352
			v42.597C310.047,195.684,310.313,196.177,310.728,196.485L310.728,196.485z M310.728,196.485"/>
	</g>
	<g>
		<defs>
			<rect id="SVGID_7_" x="2.5" y="9.5" width="311.634" height="642"/>
		</defs>
		<defs>
			<path id="SVGID_8_" d="M53.6,24.826c-20.698,0-37.476,16.775-37.476,37.456v533.029c0,20.687,16.77,37.456,37.476,37.456H266.44
				c20.698,0,37.476-16.775,37.476-37.456V62.283c0-20.687-16.77-37.456-37.476-37.456H53.6L53.6,24.826z M53.6,24.826"/>
		</defs>
		<clipPath id="SVGID_9_">
			<use xlink:href="#SVGID_7_"  overflow="visible"/>
		</clipPath>
		<clipPath id="SVGID_10_" clip-path="url(#SVGID_9_)">
			<use xlink:href="#SVGID_8_"  overflow="visible"/>
		</clipPath>
		<path clip-path="url(#SVGID_10_)" fill="none" stroke="#A4A4A4" stroke-width="2" stroke-miterlimit="10" d="M53.6,24.826
			c-20.698,0-37.476,16.775-37.476,37.456v533.029c0,20.687,16.77,37.456,37.476,37.456h212.84
			c20.698,0,37.476-16.775,37.476-37.456V62.283c0-20.687-16.77-37.456-37.476-37.456H53.6L53.6,24.826z M53.6,24.826"/>
	</g>
	<g>
		<defs>
			<rect id="SVGID_11_" x="2.5" y="9.5" width="311.634" height="642"/>
		</defs>
		<defs>
			<path id="SVGID_12_" d="M53.6,24.826c-20.698,0-37.476,16.775-37.476,37.456v533.029c0,20.687,16.77,37.456,37.476,37.456H266.44
				c20.698,0,37.476-16.775,37.476-37.456V62.283c0-20.687-16.77-37.456-37.476-37.456H53.6L53.6,24.826z M53.6,24.826"/>
		</defs>
		<clipPath id="SVGID_13_">
			<use xlink:href="#SVGID_11_"  overflow="visible"/>
		</clipPath>
		<clipPath id="SVGID_14_" clip-path="url(#SVGID_13_)">
			<use xlink:href="#SVGID_12_"  overflow="visible"/>
		</clipPath>
		<path clip-path="url(#SVGID_14_)" fill="none" stroke="#A4A4A4" stroke-width="2" stroke-miterlimit="10" d="M53.6,24.826
			c-20.698,0-37.476,16.775-37.476,37.456v533.029c0,20.687,16.77,37.456,37.476,37.456h212.84
			c20.698,0,37.476-16.775,37.476-37.456V62.283c0-20.687-16.77-37.456-37.476-37.456H53.6L53.6,24.826z M53.6,24.826"/>
	</g>
	<g>
		<defs>
			<rect id="SVGID_15_" x="2.5" y="9.5" width="311.634" height="642"/>
		</defs>
		<clipPath id="SVGID_16_">
			<use xlink:href="#SVGID_15_"  overflow="visible"/>
		</clipPath>
		<path clip-path="url(#SVGID_16_)" fill="none" stroke="#A4A4A4" stroke-linecap="square" stroke-miterlimit="10" d="
			M5.903,151.686v46.838 M6.757,97.1v24.041 M5.902,207.055v47.523"/>
	</g>
	<path fill="none" stroke="#A4A4A4" stroke-miterlimit="10" d="M159.168,40.152c1.881,0,3.406-1.525,3.406-3.406
		s-1.525-3.406-3.406-3.406c-1.881,0-3.406,1.525-3.406,3.406S157.287,40.152,159.168,40.152L159.168,40.152z M159.168,40.152"/>
	<g>
		<defs>
			<rect id="SVGID_17_" x="2.5" y="9.5" width="311.634" height="642"/>
		</defs>
		<defs>
			<path id="SVGID_18_" d="M29.748,91.24c-1.882,0-3.407,1.531-3.407,3.406v466.599c0,1.881,1.527,3.406,3.407,3.406h258.841
				c1.882,0,3.407-1.531,3.407-3.406V94.646c0-1.881-1.527-3.406-3.407-3.406H29.748L29.748,91.24z M29.748,91.24"/>
		</defs>
		<clipPath id="SVGID_19_">
			<use xlink:href="#SVGID_17_"  overflow="visible"/>
		</clipPath>
		<clipPath id="SVGID_20_" clip-path="url(#SVGID_19_)">
			<use xlink:href="#SVGID_18_"  overflow="visible"/>
		</clipPath>
		<path clip-path="url(#SVGID_20_)" fill="none" stroke="#A4A4A4" stroke-width="2" stroke-miterlimit="10" d="M29.748,91.24
			c-1.882,0-3.407,1.531-3.407,3.406v466.599c0,1.881,1.527,3.406,3.407,3.406h258.841c1.882,0,3.407-1.531,3.407-3.406V94.646
			c0-1.881-1.527-3.406-3.407-3.406H29.748L29.748,91.24z M29.748,91.24"/>
	</g>
	<path fill="none" stroke="#A4A4A4" stroke-miterlimit="10" d="M159.168,620.847c11.286,0,20.435-9.149,20.435-20.435
		c0-11.286-9.149-20.435-20.435-20.435s-20.435,9.149-20.435,20.435C138.733,611.698,147.882,620.847,159.168,620.847
		L159.168,620.847z M159.168,620.847 M159.168,624.253c13.167,0,23.841-10.674,23.841-23.841s-10.674-23.841-23.841-23.841
		c-13.167,0-23.841,10.674-23.841,23.841S146.001,624.253,159.168,624.253L159.168,624.253z M159.168,624.253"/>
	
		<line fill="none" stroke="#959595" stroke-linecap="square" stroke-miterlimit="10" x1="28.895" y1="153.396" x2="291.283" y2="153.396"/>
	<path fill="#B3B3B3" d="M62.32,130.407v-7.418c0.244-0.378,0.564-0.672,0.96-0.883c0.396-0.21,0.863-0.316,1.399-0.316
		c0.695,0,1.218,0.195,1.569,0.585c0.351,0.39,0.526,0.994,0.526,1.811v6.22h1.802v-6.201c0-1.317-0.294-2.293-0.883-2.927
		c-0.589-0.634-1.41-0.951-2.465-0.951c-0.604,0-1.154,0.133-1.651,0.398c-0.497,0.265-0.916,0.636-1.258,1.111v-5.698h-1.802
		v14.269H62.32L62.32,130.407z M71.869,121.846v6.009c0,0.945,0.216,1.639,0.649,2.081c0.433,0.442,1.015,0.663,1.747,0.663
		c0.256,0,0.515-0.035,0.777-0.104c0.262-0.069,0.46-0.158,0.595-0.267l-0.247-1.221c-0.085,0.031-0.192,0.06-0.32,0.087
		c-0.128,0.027-0.244,0.041-0.348,0.041c-0.317,0-0.572-0.095-0.764-0.284c-0.192-0.19-0.288-0.517-0.288-0.981v-6.024h1.875v-1.335
		h-1.875v-2.387h-1.802v2.387h-1.573v1.335H71.869L71.869,121.846z M78.18,121.846v6.009c0,0.945,0.216,1.639,0.649,2.081
		c0.433,0.442,1.015,0.663,1.747,0.663c0.256,0,0.515-0.035,0.777-0.104c0.262-0.069,0.46-0.158,0.595-0.267l-0.247-1.221
		c-0.085,0.031-0.192,0.06-0.32,0.087c-0.128,0.027-0.244,0.041-0.348,0.041c-0.317,0-0.572-0.095-0.764-0.284
		c-0.192-0.19-0.288-0.517-0.288-0.981v-6.024h1.875v-1.335h-1.875v-2.387H78.18v2.387h-1.573v1.335H78.18L78.18,121.846z
		 M85.589,134.203v-4.837c0.323,0.411,0.715,0.72,1.175,0.925c0.46,0.206,0.995,0.308,1.605,0.308c1.201,0,2.143-0.437,2.826-1.313
		c0.683-0.875,1.024-2.026,1.024-3.453v-0.192c0-1.597-0.34-2.883-1.02-3.855c-0.68-0.972-1.633-1.459-2.858-1.459
		c-0.64,0-1.201,0.125-1.683,0.375c-0.482,0.25-0.884,0.613-1.207,1.088l-0.284-1.281h-1.381v13.692H85.589L85.589,134.203z
		 M85.589,123.107c0.226-0.408,0.521-0.729,0.887-0.964c0.366-0.234,0.808-0.352,1.326-0.352c0.86,0,1.511,0.361,1.953,1.083
		c0.442,0.722,0.663,1.643,0.663,2.763v0.192c0,0.987-0.22,1.792-0.659,2.416s-1.085,0.936-1.939,0.936
		c-0.531,0-0.979-0.114-1.345-0.343c-0.366-0.228-0.662-0.547-0.887-0.955V123.107L85.589,123.107z M96.4,130.407v-1.838h-1.802
		v1.838H96.4L96.4,130.407z M96.4,122.395v-1.838h-1.802v1.838H96.4L96.4,122.395z M99.538,131.55l5.552-14.461h-1.527
		l-5.561,14.461H99.538L99.538,131.55z M107.312,131.55l5.552-14.461h-1.527l-5.561,14.461H107.312L107.312,131.55z M116.66,130.407
		h1.454l1.921-6.028l0.348-1.573h0.055l0.375,1.573l1.957,6.028h1.454l2.872-9.897h-1.884l-1.463,6.293l-0.293,1.418h-0.055
		l-0.256-1.418l-1.985-6.293h-1.445l-1.976,6.293l-0.238,1.271h-0.055l-0.229-1.271l-1.555-6.293h-1.848L116.66,130.407
		L116.66,130.407z M130.837,130.407h1.454l1.921-6.028l0.348-1.573h0.055l0.375,1.573l1.957,6.028h1.454l2.872-9.897h-1.884
		l-1.463,6.293l-0.293,1.418h-0.055l-0.256-1.418l-1.985-6.293h-1.445l-1.976,6.293l-0.238,1.271h-0.055l-0.229-1.271l-1.555-6.293
		h-1.848L130.837,130.407L130.837,130.407z M145.014,130.407h1.454l1.921-6.028l0.348-1.573h0.055l0.375,1.573l1.957,6.028h1.454
		l2.872-9.897h-1.884l-1.463,6.293l-0.293,1.418h-0.055l-0.256-1.418l-1.985-6.293h-1.445l-1.976,6.293l-0.238,1.271h-0.055
		l-0.229-1.271l-1.555-6.293h-1.848L145.014,130.407L145.014,130.407z"/>
	<path fill="#B3B3B3" d="M158.075,130.407v-1.838h-1.802v1.838H158.075L158.075,130.407z M161.821,129.287
		c0.68,0.875,1.624,1.313,2.831,1.313c0.591,0,1.113-0.107,1.564-0.32c0.451-0.213,0.838-0.527,1.162-0.942v1.128
		c0,0.819-0.2,1.429-0.599,1.829c-0.399,0.4-1.038,0.601-1.916,0.601c-0.476,0-0.959-0.057-1.45-0.17
		c-0.491-0.113-0.91-0.262-1.258-0.445l-0.274,1.397c0.421,0.224,0.907,0.401,1.459,0.532c0.552,0.13,1.066,0.195,1.541,0.195
		c1.39,0,2.454-0.34,3.192-1.02c0.738-0.68,1.107-1.654,1.107-2.922v-9.951h-1.436l-0.22,1.29c-0.323-0.476-0.723-0.84-1.198-1.093
		c-0.476-0.253-1.028-0.38-1.656-0.38c-1.22,0-2.169,0.488-2.849,1.463c-0.68,0.976-1.02,2.259-1.02,3.851v0.192
		C160.801,127.261,161.141,128.412,161.821,129.287L161.821,129.287z M162.603,125.642c0-1.14,0.206-2.067,0.617-2.781
		s1.047-1.07,1.907-1.07c0.524,0,0.973,0.123,1.345,0.37c0.372,0.247,0.674,0.581,0.906,1.002v4.555
		c-0.238,0.451-0.54,0.8-0.906,1.047c-0.366,0.247-0.82,0.37-1.363,0.37c-0.854,0-1.485-0.302-1.893-0.906
		c-0.409-0.604-0.613-1.402-0.613-2.396V125.642L162.603,125.642z M172.541,129.236c0.796,0.909,1.904,1.363,3.325,1.363
		c0.817,0,1.515-0.118,2.095-0.354c0.579-0.236,1.046-0.526,1.399-0.87l-0.704-1.17c-0.329,0.304-0.724,0.543-1.184,0.716
		c-0.46,0.173-0.996,0.26-1.605,0.26c-0.903,0-1.573-0.309-2.012-0.926c-0.439-0.617-0.659-1.422-0.659-2.413l0.027-0.046h6.329
		v-0.951c0-1.366-0.331-2.46-0.992-3.284c-0.662-0.823-1.654-1.235-2.977-1.235c-1.183,0-2.185,0.465-3.005,1.395
		c-0.82,0.93-1.23,2.105-1.23,3.526v0.402C171.347,127.133,171.745,128.328,172.541,129.236L172.541,129.236z M174.022,122.472
		c0.412-0.485,0.931-0.727,1.559-0.727c0.738,0,1.283,0.235,1.637,0.704c0.354,0.47,0.531,1.064,0.531,1.784v0.146h-4.464
		l-0.018-0.046C173.359,123.578,173.611,122.957,174.022,122.472L174.022,122.472z M182.346,129.186
		c0.796,0.942,1.876,1.413,3.242,1.413c1.366,0,2.445-0.469,3.238-1.409c0.793-0.939,1.189-2.146,1.189-3.622v-0.201
		c0-1.469-0.398-2.677-1.194-3.622c-0.796-0.945-1.88-1.418-3.252-1.418c-1.36,0-2.436,0.474-3.229,1.422
		c-0.793,0.948-1.189,2.154-1.189,3.617v0.201C181.152,127.038,181.55,128.244,182.346,129.186L182.346,129.186z M182.954,125.363
		c0-1.035,0.221-1.897,0.663-2.585c0.442-0.688,1.093-1.032,1.953-1.032c0.866,0,1.523,0.344,1.971,1.032
		c0.448,0.688,0.672,1.55,0.672,2.585v0.201c0,1.048-0.223,1.913-0.668,2.594c-0.445,0.682-1.098,1.023-1.957,1.023
		c-0.872,0-1.529-0.341-1.971-1.023c-0.442-0.682-0.663-1.547-0.663-2.594V125.363L182.954,125.363z M194.021,130.407v-7.345
		c0.226-0.402,0.532-0.715,0.919-0.938c0.387-0.222,0.858-0.334,1.413-0.334c0.707,0,1.233,0.183,1.578,0.549
		c0.344,0.366,0.517,0.985,0.517,1.857v6.21h1.802v-6.247c0-1.305-0.293-2.27-0.878-2.895c-0.585-0.625-1.412-0.938-2.479-0.938
		c-0.634,0-1.2,0.145-1.697,0.434c-0.497,0.29-0.91,0.697-1.239,1.221l-0.128-1.473h-1.61v9.897H194.021L194.021,130.407z
		 M205.473,130.213l-0.43,1.034c-0.165,0.415-0.369,0.793-0.613,1.135c-0.244,0.342-0.558,0.512-0.942,0.512
		c-0.067,0-0.227-0.009-0.48-0.027c-0.253-0.018-0.361-0.024-0.325-0.018l-0.183,1.409c0.122,0.03,0.296,0.062,0.521,0.095
		c0.226,0.033,0.412,0.05,0.558,0.05c0.793,0,1.422-0.247,1.889-0.741c0.466-0.494,0.825-1.073,1.075-1.738l4.162-11.415h-2.003
		l-2.433,7.478h-0.055l-0.32-1.245l-2.085-6.234h-2.012L205.473,130.213L205.473,130.213z M212.991,121.846v6.009
		c0,0.945,0.216,1.639,0.649,2.081c0.433,0.442,1.015,0.663,1.747,0.663c0.256,0,0.515-0.035,0.777-0.104
		c0.262-0.069,0.46-0.158,0.595-0.267l-0.247-1.221c-0.085,0.031-0.192,0.06-0.32,0.087c-0.128,0.027-0.244,0.041-0.348,0.041
		c-0.317,0-0.572-0.095-0.764-0.284c-0.192-0.19-0.288-0.517-0.288-0.981v-6.024h1.875v-1.335h-1.875v-2.387h-1.802v2.387h-1.573
		v1.335H212.991L212.991,121.846z M220.565,130.407v-1.838h-1.802v1.838H220.565L220.565,130.407z M224.324,129.181
		c0.756,0.945,1.829,1.418,3.22,1.418c1-0.006,1.878-0.339,2.634-0.999c0.732-0.636,1.098-1.366,1.098-2.191
		c0-0.029,0-0.055,0-0.078l-0.027-0.052h-1.628c0,0.534-0.208,0.985-0.623,1.352c-0.415,0.367-0.901,0.551-1.457,0.551
		c-0.898,0-1.547-0.341-1.947-1.023c-0.4-0.682-0.6-1.519-0.6-2.512v-0.384c0-0.974,0.203-1.804,0.609-2.489
		c0.406-0.685,1.052-1.028,1.938-1.028c0.599,0,1.095,0.212,1.489,0.636c0.394,0.424,0.591,0.938,0.591,1.541h1.637l0.018-0.057
		c0-0.037,0-0.07,0-0.101c0.006-0.951-0.333-1.755-1.016-2.413c-0.708-0.682-1.615-1.024-2.72-1.024
		c-1.383,0-2.454,0.474-3.212,1.422c-0.758,0.948-1.138,2.121-1.138,3.517v0.384C223.19,127.059,223.568,128.236,224.324,129.181
		L224.324,129.181z M234.188,129.186c0.796,0.942,1.876,1.413,3.242,1.413c1.366,0,2.445-0.469,3.238-1.409
		c0.793-0.939,1.189-2.146,1.189-3.622v-0.201c0-1.469-0.398-2.677-1.194-3.622c-0.796-0.945-1.88-1.418-3.252-1.418
		c-1.36,0-2.436,0.474-3.229,1.422c-0.793,0.948-1.189,2.154-1.189,3.617v0.201C232.995,127.038,233.393,128.244,234.188,129.186
		L234.188,129.186z M234.797,125.363c0-1.035,0.221-1.897,0.663-2.585c0.442-0.688,1.093-1.032,1.953-1.032
		c0.866,0,1.523,0.344,1.971,1.032c0.448,0.688,0.672,1.55,0.672,2.585v0.201c0,1.048-0.223,1.913-0.668,2.594
		c-0.445,0.682-1.098,1.023-1.957,1.023c-0.872,0-1.529-0.341-1.971-1.023c-0.442-0.682-0.663-1.547-0.663-2.594V125.363
		L234.797,125.363z M245.864,130.407v-7.326c0.189-0.408,0.46-0.726,0.814-0.951c0.354-0.225,0.805-0.338,1.354-0.338
		c0.646,0,1.142,0.215,1.486,0.645c0.344,0.43,0.517,1.108,0.517,2.035v5.936h1.802v-6.284v-0.073
		c0.067-0.652,0.292-1.192,0.674-1.619c0.382-0.427,0.882-0.64,1.499-0.64c0.666,0,1.167,0.203,1.503,0.608
		c0.336,0.406,0.504,1.096,0.504,2.072v5.936h1.802v-5.918c0-1.39-0.293-2.431-0.879-3.124c-0.586-0.692-1.383-1.038-2.39-1.038
		c-0.684,0-1.281,0.163-1.791,0.489c-0.51,0.326-0.924,0.773-1.241,1.34c-0.237-0.61-0.591-1.067-1.063-1.372
		c-0.471-0.305-1.035-0.457-1.692-0.457c-0.659,0-1.236,0.13-1.733,0.389c-0.497,0.259-0.907,0.624-1.23,1.093l-0.128-1.299h-1.61
		v9.897H245.864L245.864,130.407z"/>
	<g>
		<defs>
			<rect id="SVGID_21_" x="2.5" y="9.5" width="311.634" height="642"/>
		</defs>
		<defs>
			<path id="SVGID_22_" d="M53.519,187.809c-3.757,0-6.803,3.061-6.803,6.817v128.205c0,3.765,3.05,6.817,6.803,6.817H263.15
				c3.757,0,6.803-3.061,6.803-6.817V194.626c0-3.765-3.05-6.817-6.803-6.817H53.519L53.519,187.809z M53.519,187.809"/>
		</defs>
		<clipPath id="SVGID_23_">
			<use xlink:href="#SVGID_21_"  overflow="visible"/>
		</clipPath>
		<clipPath id="SVGID_24_" clip-path="url(#SVGID_23_)">
			<use xlink:href="#SVGID_22_"  overflow="visible"/>
		</clipPath>
		<path clip-path="url(#SVGID_24_)" fill="none" stroke="#959595" stroke-width="2" stroke-miterlimit="10" d="M53.519,187.809
			c-3.757,0-6.803,3.061-6.803,6.817v128.205c0,3.765,3.05,6.817,6.803,6.817H263.15c3.757,0,6.803-3.061,6.803-6.817V194.626
			c0-3.765-3.05-6.817-6.803-6.817H53.519L53.519,187.809z M53.519,187.809"/>
	</g>
	<path fill="none" stroke="#959595" stroke-linecap="square" stroke-miterlimit="10" d="M47.405,289.63h219.922 M160.02,291.333
		v37.464"/>
	<path fill="#B3B3B3" d="M207.413,314.736c0.884,0.976,2.033,1.463,3.447,1.463c1.463,0,2.654-0.488,3.571-1.463
		c0.917-0.976,1.376-2.203,1.376-3.684v-2.154c0-1.48-0.459-2.709-1.376-3.688c-0.918-0.978-2.108-1.468-3.571-1.468
		c-1.414,0-2.562,0.491-3.447,1.472c-0.884,0.981-1.326,2.209-1.326,3.684v2.154C206.087,312.533,206.529,313.761,207.413,314.736
		L207.413,314.736z M207.725,308.876c0-1.111,0.284-2.023,0.852-2.734c0.568-0.711,1.329-1.067,2.282-1.067
		c1.009,0,1.813,0.356,2.411,1.067c0.599,0.711,0.898,1.623,0.898,2.734v2.176c0,1.128-0.298,2.047-0.894,2.755
		c-0.596,0.709-1.401,1.063-2.416,1.063c-0.954,0-1.714-0.356-2.282-1.067c-0.568-0.711-0.852-1.628-0.852-2.751V308.876
		L207.725,308.876z M219.59,316.025v-4.149h0.84l2.993,4.149h1.937l-3.551-4.839l3.268-4.158h-1.962l-2.702,3.559h-0.823v-7.533
		h-1.638v12.971H219.59L219.59,316.025z"/>
	<path fill="#B3B3B3" d="M81.405,314.745c0.862,0.97,1.978,1.455,3.347,1.455c1.347,0,2.431-0.383,3.251-1.149
		c0.798-0.744,1.197-1.665,1.197-2.765c0-0.032,0-0.061,0-0.088l-0.017-0.048h-1.572c0,0.862-0.249,1.538-0.748,2.027
		c-0.499,0.489-1.203,0.734-2.112,0.734c-0.915,0-1.644-0.368-2.187-1.105c-0.543-0.737-0.815-1.656-0.815-2.758v-2.168
		c0-1.091,0.272-2.005,0.815-2.742c0.543-0.737,1.272-1.105,2.187-1.105c0.909,0,1.613,0.247,2.112,0.74
		c0.499,0.493,0.748,1.164,0.748,2.012h1.572l0.017-0.051c0-0.034,0-0.067,0-0.101c0-1.158-0.394-2.091-1.181-2.801
		c-0.809-0.731-1.899-1.094-3.268-1.089c-1.369,0-2.485,0.486-3.347,1.459c-0.862,0.973-1.293,2.205-1.293,3.696v2.154
		C80.112,312.544,80.543,313.775,81.405,314.745L81.405,314.745z M91.533,315.481c0.491,0.48,1.204,0.719,2.141,0.719
		c0.565,0,1.093-0.146,1.584-0.437c0.491-0.291,0.888-0.653,1.193-1.085c0.005,0.211,0.024,0.42,0.054,0.628
		c0.03,0.208,0.073,0.448,0.129,0.719h1.688c-0.089-0.288-0.15-0.582-0.183-0.881c-0.033-0.299-0.05-0.61-0.05-0.931v-4.332
		c0-0.976-0.311-1.723-0.931-2.241c-0.621-0.518-1.441-0.777-2.461-0.777c-1.031,0-1.874,0.272-2.532,0.815
		c-0.613,0.516-0.922,1.078-0.927,1.688c0,0.033,0,0.069,0,0.108l0.017,0.05l1.571-0.017c0-0.371,0.163-0.69,0.491-0.956
		c0.327-0.266,0.757-0.399,1.289-0.399c0.588,0,1.042,0.154,1.364,0.461c0.321,0.308,0.482,0.725,0.482,1.251v0.89h-1.779
		c-1.192,0-2.136,0.243-2.831,0.728c-0.696,0.485-1.044,1.157-1.044,2.016C90.797,314.34,91.043,315.001,91.533,315.481
		L91.533,315.481z M93.03,312.358c0.396-0.333,0.924-0.499,1.584-0.499h1.838v1.463c-0.144,0.394-0.455,0.743-0.931,1.048
		c-0.477,0.305-1.012,0.457-1.605,0.457c-0.488,0-0.856-0.116-1.106-0.349s-0.374-0.549-0.374-0.948
		C92.435,313.082,92.633,312.691,93.03,312.358L93.03,312.358z M102.106,316.025v-6.677c0.205-0.366,0.484-0.65,0.836-0.852
		c0.352-0.202,0.78-0.303,1.285-0.303c0.643,0,1.121,0.166,1.434,0.499c0.313,0.333,0.47,0.895,0.47,1.688v5.646h1.638v-5.679
		c0-1.186-0.266-2.063-0.798-2.632c-0.532-0.568-1.283-0.852-2.253-0.852c-0.577,0-1.091,0.132-1.542,0.395
		c-0.452,0.263-0.827,0.633-1.127,1.11l-0.116-1.339h-1.463v8.997H102.106L102.106,316.025z M110.795,314.911
		c0.687,0.859,1.663,1.289,2.927,1.289c0.909-0.006,1.707-0.308,2.395-0.908c0.665-0.578,0.998-1.242,0.998-1.992
		c0-0.026,0-0.05,0-0.071l-0.025-0.047h-1.48c0,0.486-0.189,0.895-0.567,1.229c-0.378,0.334-0.819,0.501-1.325,0.501
		c-0.816,0-1.407-0.31-1.77-0.93c-0.364-0.62-0.546-1.381-0.546-2.284v-0.349c0-0.886,0.185-1.64,0.554-2.263
		c0.369-0.623,0.957-0.934,1.762-0.934c0.544,0,0.996,0.193,1.354,0.578c0.358,0.385,0.537,0.852,0.537,1.401h1.488l0.017-0.052
		c0-0.033,0-0.064,0-0.091c0.005-0.864-0.302-1.595-0.924-2.194c-0.644-0.62-1.468-0.931-2.472-0.931
		c-1.257,0-2.231,0.431-2.92,1.293c-0.689,0.862-1.034,1.928-1.034,3.197v0.349C109.764,312.982,110.107,314.052,110.795,314.911
		L110.795,314.911z M119.763,314.961c0.723,0.826,1.731,1.239,3.023,1.239c0.743,0,1.377-0.107,1.904-0.322
		c0.527-0.215,0.951-0.478,1.272-0.791l-0.64-1.063c-0.299,0.276-0.658,0.494-1.077,0.651c-0.419,0.158-0.905,0.236-1.459,0.236
		c-0.82,0-1.43-0.28-1.829-0.842c-0.399-0.561-0.599-1.292-0.599-2.193l0.025-0.041h5.754v-0.865c0-1.242-0.301-2.237-0.902-2.985
		c-0.602-0.748-1.504-1.123-2.707-1.123c-1.076,0-1.986,0.423-2.731,1.268c-0.746,0.845-1.118,1.914-1.118,3.205v0.366
		C118.678,313.048,119.039,314.135,119.763,314.961L119.763,314.961z M121.11,308.812c0.374-0.441,0.847-0.661,1.418-0.661
		c0.671,0,1.167,0.213,1.488,0.64c0.321,0.427,0.482,0.967,0.482,1.621v0.133h-4.058l-0.017-0.042
		C120.507,309.817,120.736,309.253,121.11,308.812L121.11,308.812z M129.745,316.025v-12.971h-1.638v12.971H129.745L129.745,316.025
		z"/>
</g>
</svg>
