<?xml version="1.0" encoding="utf-8"?>
<!-- Generator: Adobe Illustrator 17.0.0, SVG Export Plug-In . SVG Version: 6.00 Build 0)  -->
<!DOCTYPE svg PUBLIC "-//W3C//DTD SVG 1.1//EN" "http://www.w3.org/Graphics/SVG/1.1/DTD/svg11.dtd">
<svg version="1.1" id="Calque_1" xmlns="http://www.w3.org/2000/svg" xmlns:xlink="http://www.w3.org/1999/xlink" x="0px" y="0px"
	 width="320px" height="660px" viewBox="0 0 320 660" enable-background="new 0 0 320 660" xml:space="preserve">
<g>
	<path fill="none" stroke="#A4A4A4" stroke-miterlimit="10" d="M111.487,62.29c2.821,0,5.109-2.287,5.109-5.109
		c0-2.821-2.287-5.109-5.109-5.109c-2.821,0-5.109,2.287-5.109,5.109C106.378,60.003,108.665,62.29,111.487,62.29L111.487,62.29z"/>
	<g>
		<g>
			<g>
				<g>
					<defs>
						<rect id="SVGID_1_" x="2.5" y="9.5" width="311.634" height="642"/>
					</defs>
					<clipPath id="SVGID_2_">
						<use xlink:href="#SVGID_1_"  overflow="visible"/>
					</clipPath>
				</g>
				<g>
					<defs>
						<rect id="SVGID_3_" x="2.5" y="9.5" width="311.634" height="642"/>
					</defs>
					<defs>
						<path id="SVGID_4_" d="M137.016,53.776c-1.873,0-3.392,1.512-3.392,3.406l0,0c0,1.881,1.529,3.406,3.392,3.406h44.304
							c1.873,0,3.392-1.512,3.392-3.406l0,0c0-1.881-1.529-3.406-3.392-3.406H137.016L137.016,53.776z"/>
					</defs>
					<clipPath id="SVGID_5_">
						<use xlink:href="#SVGID_3_"  overflow="visible"/>
					</clipPath>
					<clipPath id="SVGID_6_" clip-path="url(#SVGID_5_)">
						<use xlink:href="#SVGID_4_"  overflow="visible"/>
					</clipPath>
					<path clip-path="url(#SVGID_6_)" fill="none" stroke="#A4A4A4" stroke-width="2" stroke-miterlimit="10" d="M137.016,53.776
						c-1.873,0-3.392,1.512-3.392,3.406l0,0c0,1.881,1.529,3.406,3.392,3.406h44.304c1.873,0,3.392-1.512,3.392-3.406l0,0
						c0-1.881-1.529-3.406-3.392-3.406H137.016L137.016,53.776z"/>
				</g>
			</g>
		</g>
	</g>
	<g>
		<g>
			<g>
				<g>
					<defs>
						<rect id="SVGID_7_" x="2.5" y="9.5" width="311.634" height="642"/>
					</defs>
					<clipPath id="SVGID_8_">
						<use xlink:href="#SVGID_7_"  overflow="visible"/>
					</clipPath>
					<path clip-path="url(#SVGID_8_)" fill="none" stroke="#A4A4A4" stroke-miterlimit="10" d="M310.728,196.485v400.536
						c0,24.449-19.824,44.262-44.279,44.262H51.888c-24.449,0-44.279-19.817-44.279-44.262V62.276
						c0-24.449,19.824-44.262,44.279-44.262h214.561c24.449,0,44.279,19.817,44.279,44.262v88.904
						c-0.414,0.309-0.681,0.8-0.681,1.352v42.597C310.047,195.684,310.313,196.177,310.728,196.485L310.728,196.485z
						 M310.728,196.485v400.536c0,24.449-19.824,44.262-44.279,44.262H51.888c-24.449,0-44.279-19.817-44.279-44.262V62.276
						c0-24.449,19.824-44.262,44.279-44.262h214.561c24.449,0,44.279,19.817,44.279,44.262v88.904
						c-0.414,0.309-0.681,0.8-0.681,1.352v42.597C310.047,195.684,310.313,196.177,310.728,196.485L310.728,196.485z"/>
				</g>
			</g>
		</g>
	</g>
	<g>
		<g>
			<g>
				<g>
					<defs>
						<rect id="SVGID_9_" x="2.5" y="9.5" width="311.634" height="642"/>
					</defs>
					<clipPath id="SVGID_10_">
						<use xlink:href="#SVGID_9_"  overflow="visible"/>
					</clipPath>
				</g>
				<g>
					<defs>
						<rect id="SVGID_11_" x="2.5" y="9.5" width="311.634" height="642"/>
					</defs>
					<defs>
						<path id="SVGID_12_" d="M53.6,24.826c-20.698,0-37.476,16.775-37.476,37.456v533.029c0,20.687,16.77,37.456,37.476,37.456
							h212.84c20.698,0,37.476-16.775,37.476-37.456V62.283c0-20.687-16.77-37.456-37.476-37.456L53.6,24.826L53.6,24.826z"/>
					</defs>
					<clipPath id="SVGID_13_">
						<use xlink:href="#SVGID_11_"  overflow="visible"/>
					</clipPath>
					<clipPath id="SVGID_14_" clip-path="url(#SVGID_13_)">
						<use xlink:href="#SVGID_12_"  overflow="visible"/>
					</clipPath>
					<path clip-path="url(#SVGID_14_)" fill="none" stroke="#A4A4A4" stroke-width="2" stroke-miterlimit="10" d="M53.6,24.826
						c-20.698,0-37.476,16.775-37.476,37.456v533.029c0,20.687,16.77,37.456,37.476,37.456h212.84
						c20.698,0,37.476-16.775,37.476-37.456V62.283c0-20.687-16.77-37.456-37.476-37.456L53.6,24.826L53.6,24.826z"/>
				</g>
			</g>
		</g>
	</g>
	<g>
		<g>
			<g>
				<g>
					<defs>
						<rect id="SVGID_15_" x="2.5" y="9.5" width="311.634" height="642"/>
					</defs>
					<clipPath id="SVGID_16_">
						<use xlink:href="#SVGID_15_"  overflow="visible"/>
					</clipPath>
				</g>
				<g>
					<defs>
						<rect id="SVGID_17_" x="2.5" y="9.5" width="311.634" height="642"/>
					</defs>
					<defs>
						<path id="SVGID_18_" d="M53.6,24.826c-20.698,0-37.476,16.775-37.476,37.456v533.029c0,20.687,16.77,37.456,37.476,37.456
							h212.84c20.698,0,37.476-16.775,37.476-37.456V62.283c0-20.687-16.77-37.456-37.476-37.456L53.6,24.826L53.6,24.826z"/>
					</defs>
					<clipPath id="SVGID_19_">
						<use xlink:href="#SVGID_17_"  overflow="visible"/>
					</clipPath>
					<clipPath id="SVGID_20_" clip-path="url(#SVGID_19_)">
						<use xlink:href="#SVGID_18_"  overflow="visible"/>
					</clipPath>
					<path clip-path="url(#SVGID_20_)" fill="none" stroke="#A4A4A4" stroke-width="2" stroke-miterlimit="10" d="M53.6,24.826
						c-20.698,0-37.476,16.775-37.476,37.456v533.029c0,20.687,16.77,37.456,37.476,37.456h212.84
						c20.698,0,37.476-16.775,37.476-37.456V62.283c0-20.687-16.77-37.456-37.476-37.456L53.6,24.826L53.6,24.826z"/>
				</g>
			</g>
		</g>
	</g>
	<g>
		<g>
			<g>
				<g>
					<defs>
						<rect id="SVGID_21_" x="2.5" y="9.5" width="311.634" height="642"/>
					</defs>
					<clipPath id="SVGID_22_">
						<use xlink:href="#SVGID_21_"  overflow="visible"/>
					</clipPath>
					<path clip-path="url(#SVGID_22_)" fill="none" stroke="#A4A4A4" stroke-linecap="square" stroke-miterlimit="10" d="
						M5.903,151.686v46.838 M6.757,97.1v24.041 M5.902,207.055v47.523"/>
				</g>
			</g>
		</g>
	</g>
	<path fill="none" stroke="#A4A4A4" stroke-miterlimit="10" d="M159.168,40.152c1.881,0,3.406-1.525,3.406-3.406
		s-1.525-3.406-3.406-3.406c-1.881,0-3.406,1.525-3.406,3.406S157.287,40.152,159.168,40.152L159.168,40.152z"/>
	<g>
		<g>
			<g>
				<g>
					<defs>
						<rect id="SVGID_23_" x="2.5" y="9.5" width="311.634" height="642"/>
					</defs>
					<clipPath id="SVGID_24_">
						<use xlink:href="#SVGID_23_"  overflow="visible"/>
					</clipPath>
				</g>
				<g>
					<defs>
						<rect id="SVGID_25_" x="2.5" y="9.5" width="311.634" height="642"/>
					</defs>
					<defs>
						<path id="SVGID_26_" d="M29.748,91.24c-1.882,0-3.407,1.531-3.407,3.406v466.599c0,1.881,1.527,3.406,3.407,3.406h258.841
							c1.882,0,3.407-1.531,3.407-3.406V94.646c0-1.881-1.527-3.406-3.407-3.406L29.748,91.24L29.748,91.24z"/>
					</defs>
					<clipPath id="SVGID_27_">
						<use xlink:href="#SVGID_25_"  overflow="visible"/>
					</clipPath>
					<clipPath id="SVGID_28_" clip-path="url(#SVGID_27_)">
						<use xlink:href="#SVGID_26_"  overflow="visible"/>
					</clipPath>
					<path clip-path="url(#SVGID_28_)" fill="none" stroke="#A4A4A4" stroke-width="2" stroke-miterlimit="10" d="M29.748,91.24
						c-1.882,0-3.407,1.531-3.407,3.406v466.599c0,1.881,1.527,3.406,3.407,3.406h258.841c1.882,0,3.407-1.531,3.407-3.406V94.646
						c0-1.881-1.527-3.406-3.407-3.406L29.748,91.24L29.748,91.24z"/>
				</g>
			</g>
		</g>
	</g>
	<path fill="none" stroke="#A4A4A4" stroke-miterlimit="10" d="M159.168,620.847c11.286,0,20.435-9.149,20.435-20.435
		s-9.149-20.435-20.435-20.435s-20.435,9.149-20.435,20.435S147.882,620.847,159.168,620.847L159.168,620.847z M159.168,624.253
		c13.167,0,23.841-10.674,23.841-23.841s-10.674-23.841-23.841-23.841c-13.167,0-23.841,10.674-23.841,23.841
		S146.001,624.253,159.168,624.253L159.168,624.253z"/>
	
		<line fill="none" stroke="#959595" stroke-linecap="square" stroke-miterlimit="10" x1="28.895" y1="153.396" x2="291.283" y2="153.396"/>
	<g>
		<g>
			<g>
				<g>
					<defs>
						<rect id="SVGID_29_" x="2.5" y="9.5" width="311.634" height="642"/>
					</defs>
					<clipPath id="SVGID_30_">
						<use xlink:href="#SVGID_29_"  overflow="visible"/>
					</clipPath>
				</g>
				<g>
					<defs>
						<rect id="SVGID_31_" x="2.5" y="9.5" width="311.634" height="642"/>
					</defs>
					<defs>
						<path id="SVGID_32_" d="M53.519,187.809c-3.757,0-6.803,3.061-6.803,6.817v128.205c0,3.765,3.05,6.817,6.803,6.817H263.15
							c3.757,0,6.803-3.061,6.803-6.817V194.626c0-3.765-3.05-6.817-6.803-6.817H53.519L53.519,187.809z"/>
					</defs>
					<clipPath id="SVGID_33_">
						<use xlink:href="#SVGID_31_"  overflow="visible"/>
					</clipPath>
					<clipPath id="SVGID_34_" clip-path="url(#SVGID_33_)">
						<use xlink:href="#SVGID_32_"  overflow="visible"/>
					</clipPath>
					<path clip-path="url(#SVGID_34_)" fill="none" stroke="#959595" stroke-width="2" stroke-miterlimit="10" d="M53.519,187.809
						c-3.757,0-6.803,3.061-6.803,6.817v128.205c0,3.765,3.05,6.817,6.803,6.817H263.15c3.757,0,6.803-3.061,6.803-6.817V194.626
						c0-3.765-3.05-6.817-6.803-6.817H53.519L53.519,187.809z"/>
				</g>
			</g>
		</g>
	</g>
	<path fill="none" stroke="#959595" stroke-linecap="square" stroke-miterlimit="10" d="M47.405,289.63h219.922 M160.02,291.333
		v37.464"/>
	<path fill="#B3B3B3" d="M207.413,314.736c0.884,0.976,2.033,1.463,3.447,1.463c1.463,0,2.654-0.488,3.571-1.463
		c0.917-0.976,1.376-2.203,1.376-3.684v-2.154c0-1.48-0.459-2.709-1.376-3.688c-0.918-0.978-2.108-1.468-3.571-1.468
		c-1.414,0-2.562,0.491-3.447,1.472c-0.884,0.981-1.326,2.209-1.326,3.684v2.154C206.087,312.533,206.529,313.761,207.413,314.736
		L207.413,314.736z M207.725,308.876c0-1.111,0.284-2.023,0.852-2.734c0.568-0.711,1.329-1.067,2.282-1.067
		c1.009,0,1.813,0.356,2.411,1.067c0.599,0.711,0.898,1.623,0.898,2.734v2.176c0,1.128-0.298,2.047-0.894,2.755
		c-0.596,0.709-1.401,1.063-2.416,1.063c-0.954,0-1.714-0.356-2.282-1.067s-0.852-1.628-0.852-2.751v-2.176H207.725z
		 M219.59,316.025v-4.149h0.84l2.993,4.149h1.937l-3.551-4.839l3.268-4.158h-1.962l-2.702,3.559h-0.823v-7.533h-1.638v12.971
		L219.59,316.025L219.59,316.025z"/>
	<path fill="#B3B3B3" d="M81.405,314.745c0.862,0.97,1.978,1.455,3.347,1.455c1.347,0,2.431-0.383,3.251-1.149
		c0.798-0.744,1.197-1.665,1.197-2.765c0-0.032,0-0.061,0-0.088l-0.017-0.048h-1.572c0,0.862-0.249,1.538-0.748,2.027
		s-1.203,0.734-2.112,0.734c-0.915,0-1.644-0.368-2.187-1.105s-0.815-1.656-0.815-2.758v-2.168c0-1.091,0.272-2.005,0.815-2.742
		s1.272-1.105,2.187-1.105c0.909,0,1.613,0.247,2.112,0.74c0.499,0.493,0.748,1.164,0.748,2.012h1.572l0.017-0.051
		c0-0.034,0-0.067,0-0.101c0-1.158-0.394-2.091-1.181-2.801c-0.809-0.731-1.899-1.094-3.268-1.089c-1.369,0-2.485,0.486-3.347,1.459
		c-0.862,0.973-1.293,2.205-1.293,3.696v2.154C80.112,312.544,80.543,313.775,81.405,314.745L81.405,314.745z M91.533,315.481
		c0.491,0.48,1.204,0.719,2.141,0.719c0.565,0,1.093-0.146,1.584-0.437c0.491-0.291,0.888-0.653,1.193-1.085
		c0.005,0.211,0.024,0.42,0.054,0.628c0.03,0.208,0.073,0.448,0.129,0.719h1.688c-0.089-0.288-0.15-0.582-0.183-0.881
		s-0.05-0.61-0.05-0.931v-4.332c0-0.976-0.311-1.723-0.931-2.241c-0.621-0.518-1.441-0.777-2.461-0.777
		c-1.031,0-1.874,0.272-2.532,0.815c-0.613,0.516-0.922,1.078-0.927,1.688c0,0.033,0,0.069,0,0.108l0.017,0.05l1.571-0.017
		c0-0.371,0.163-0.69,0.491-0.956c0.327-0.266,0.757-0.399,1.289-0.399c0.588,0,1.042,0.154,1.364,0.461
		c0.321,0.308,0.482,0.725,0.482,1.251v0.89h-1.779c-1.192,0-2.136,0.243-2.831,0.728c-0.696,0.485-1.044,1.157-1.044,2.016
		C90.797,314.34,91.043,315.001,91.533,315.481L91.533,315.481z M93.03,312.358c0.396-0.333,0.924-0.499,1.584-0.499h1.838v1.463
		c-0.144,0.394-0.455,0.743-0.931,1.048c-0.477,0.305-1.012,0.457-1.605,0.457c-0.488,0-0.856-0.116-1.106-0.349
		s-0.374-0.549-0.374-0.948C92.435,313.082,92.633,312.691,93.03,312.358L93.03,312.358z M102.106,316.025v-6.677
		c0.205-0.366,0.484-0.65,0.836-0.852s0.78-0.303,1.285-0.303c0.643,0,1.121,0.166,1.434,0.499c0.313,0.333,0.47,0.895,0.47,1.688
		v5.646h1.638v-5.679c0-1.186-0.266-2.063-0.798-2.632c-0.532-0.568-1.283-0.852-2.253-0.852c-0.577,0-1.091,0.132-1.542,0.395
		c-0.452,0.263-0.827,0.633-1.127,1.11l-0.116-1.339h-1.463v8.997h1.636L102.106,316.025L102.106,316.025z M110.795,314.911
		c0.687,0.859,1.663,1.289,2.927,1.289c0.909-0.006,1.707-0.308,2.395-0.908c0.665-0.578,0.998-1.242,0.998-1.992
		c0-0.026,0-0.05,0-0.071l-0.025-0.047h-1.48c0,0.486-0.189,0.895-0.567,1.229s-0.819,0.501-1.325,0.501
		c-0.816,0-1.407-0.31-1.77-0.93c-0.364-0.62-0.546-1.381-0.546-2.284v-0.349c0-0.886,0.185-1.64,0.554-2.263
		s0.957-0.934,1.762-0.934c0.544,0,0.996,0.193,1.354,0.578c0.358,0.385,0.537,0.852,0.537,1.401h1.488l0.017-0.052
		c0-0.033,0-0.064,0-0.091c0.005-0.864-0.302-1.595-0.924-2.194c-0.644-0.62-1.468-0.931-2.472-0.931
		c-1.257,0-2.231,0.431-2.92,1.293c-0.689,0.862-1.034,1.928-1.034,3.197v0.349C109.764,312.982,110.107,314.052,110.795,314.911
		L110.795,314.911z M119.763,314.961c0.723,0.826,1.731,1.239,3.023,1.239c0.743,0,1.377-0.107,1.904-0.322s0.951-0.478,1.272-0.791
		l-0.64-1.063c-0.299,0.276-0.658,0.494-1.077,0.651c-0.419,0.158-0.905,0.236-1.459,0.236c-0.82,0-1.43-0.28-1.829-0.842
		c-0.399-0.561-0.599-1.292-0.599-2.193l0.025-0.041h5.754v-0.865c0-1.242-0.301-2.237-0.902-2.985
		c-0.602-0.748-1.504-1.123-2.707-1.123c-1.076,0-1.986,0.423-2.731,1.268c-0.746,0.845-1.118,1.914-1.118,3.205v0.366
		C118.678,313.048,119.039,314.135,119.763,314.961L119.763,314.961z M121.11,308.812c0.374-0.441,0.847-0.661,1.418-0.661
		c0.671,0,1.167,0.213,1.488,0.64s0.482,0.967,0.482,1.621v0.133h-4.058l-0.017-0.042
		C120.507,309.817,120.736,309.253,121.11,308.812L121.11,308.812z M129.745,316.025v-12.971h-1.638v12.971H129.745L129.745,316.025
		z"/>
</g>
<text transform="matrix(1 0 0 1 70.5 128.5)" fill="#A0A0A0" font-family="'Roboto-Medium'" font-size="18">http://bit.ly/1vs4Pmu</text>
</svg>
